# xmcd CD database file
#
# Track frame offsets:
#	150
#	24861
#	39892
#	53121
#	62252
#	84950
#	100664
#	118184
#	134785
#	154958
#	170081
#	186678
#	202670
#	217585
#	239714
#
# Disc length: 3415 seconds
#
# Revision: 0
# Processed by: cddbd v1.4PL0 Copyright (c) Steve Scherf et al.
# Submitted via: CDex 1.40Beta8
#
DISCID=c70d550f
DTITLE=Colin Linden - Big Mouth
DYEAR=2001
DGENRE=Blues
TTITLE0=Big Mouth
TTITLE1=Without the One You Love
TTITLE2=Don't Tell Me
TTITLE3=Skeleton Key
TTITLE4=The Last Thought
TTITLE5=Wasn't That Enough
TTITLE6=Wrong Side of the Bed
TTITLE7=Just Believe
TTITLE8=Blind River Bound
TTITLE9=Away Way Too Long
TTITLE10=Back In Town
TTITLE11=Spirit of the Golden Tone
TTITLE12=Power On
TTITLE13=Before the Dawn
TTITLE14=Hard Time Killing Floor Blues
EXTD=YEAR: 2001 ID3G: 0
EXTT0=
EXTT1=
EXTT2=
EXTT3=
EXTT4=
EXTT5=
EXTT6=
EXTT7=
EXTT8=
EXTT9=
EXTT10=
EXTT11=
EXTT12=
EXTT13=
EXTT14=
PLAYORDER=
